<?xml version="1.0" encoding="utf-8"?>
<!-- Generator: Adobe Illustrator 22.0.0, SVG Export Plug-In . SVG Version: 6.00 Build 0)  -->
<svg version="1.1" id="Laag_1" xmlns="http://www.w3.org/2000/svg" xmlns:xlink="http://www.w3.org/1999/xlink" x="0px" y="0px"
	 viewBox="0 0 255.2 80.2" style="enable-background:new 0 0 255.2 80.2;" xml:space="preserve">
<style type="text/css">
	.st0{fill:#828282;}
</style>
<title>logo_google_grey</title>
<g id="Laag_2_1_">
	<g id="Layer_1">
		<g id="_Groep_">
			<path id="_Pad_" class="st0" d="M31.9,28.6v8.6h20.5c-0.6,4.8-2.2,8.3-4.7,10.8c-3,3-7.7,6.3-15.9,6.3
				c-12.4,0-22.5-10.1-22.5-22.5c0-0.1,0-0.2,0-0.3C9.2,19,19.1,8.8,31.6,8.6c0.1,0,0.2,0,0.3,0c5.8-0.1,11.3,2.1,15.5,6.2l6-6
				C47.7,3.1,39.9-0.1,31.9,0C14.6,0,0,14.1,0,31.4s14.6,31.4,31.9,31.4c9.4,0,16.4-3.1,21.9-8.8c5.7-5.7,7.4-13.7,7.4-20.1
				c0-1.8-0.1-3.6-0.5-5.4H31.9z"/>
			<path id="_Samengesteld_pad_" class="st0" d="M86.9,21.6c-11-0.2-20.2,8.6-20.3,19.6c0,0.2,0,0.4,0,0.6
				c0,11.2,9.1,20.3,20.4,20.3c11.2,0,20.3-9.1,20.3-20.3c0.2-11-8.7-20.1-19.7-20.3C87.3,21.6,87.1,21.6,86.9,21.6z M86.9,54.2
				c-6.1,0-11.4-5.1-11.4-12.3s5.3-12.3,11.4-12.3s11.4,5,11.4,12.3S93,54.2,86.9,54.2z"/>
			<path id="_Samengesteld_pad_2" class="st0" d="M186.6,26.1h-0.3c-2.7-3-6.6-4.6-10.7-4.5c-10.1,0-19,8.8-19,20.3
				s8.8,20.3,19,20.3c4.1,0.1,8-1.6,10.7-4.6h0.3v2.8c0,7.8-4.2,11.9-10.8,11.9c-5.4,0-8.8-3.9-10.2-7.2l-7.8,3.2
				c3,7.3,10.1,12,18,12c10.4,0,19.3-6.1,19.3-21.1V22.6h-8.4L186.6,26.1z M176.4,54.1c-6.1,0-10.8-5.2-10.8-12.3
				s4.7-12.3,10.8-12.3s10.8,5.3,10.8,12.4S182.5,54.2,176.4,54.1L176.4,54.1z"/>
			<path id="_Samengesteld_pad_3" class="st0" d="M132.3,21.6c-11-0.2-20.2,8.6-20.3,19.6c0,0.2,0,0.4,0,0.6
				c0,11.2,9.1,20.4,20.3,20.4s20.4-9.1,20.4-20.4c0.2-11-8.7-20.1-19.7-20.3C132.7,21.6,132.5,21.6,132.3,21.6z M132.3,54.2
				c-6.1,0-11.4-5.1-11.4-12.3s5.3-12.3,11.4-12.3s11.4,5,11.4,12.3S138.4,54.2,132.3,54.2z"/>
			<path id="_Pad_2" class="st0" d="M202.1,0.8h8.8v61.3h-8.8V0.8z"/>
			<path id="_Samengesteld_pad_4" class="st0" d="M237.9,54.2c-4.5,0-7.8-2.1-9.8-6.2l27.1-11.2l-0.9-2.3
				c-1.7-4.5-6.8-12.9-17.4-12.9s-19.1,8.2-19.1,20.3c0,11.4,8.6,20.3,20.1,20.3c6.8,0,13.1-3.4,16.9-9l-6.9-4.6
				C245.6,51.9,242.4,54.1,237.9,54.2L237.9,54.2z M237.3,29.2c3.6,0,6.7,1.9,7.7,4.5l-18.3,7.6C226.6,32.7,232.7,29.2,237.3,29.2
				L237.3,29.2z"/>
		</g>
	</g>
</g>
</svg>
