<?xml version="1.0" encoding="utf-8"?>
<!-- Generator: Adobe Illustrator 22.0.0, SVG Export Plug-In . SVG Version: 6.00 Build 0)  -->
<svg version="1.1" id="Layer_1" xmlns="http://www.w3.org/2000/svg" xmlns:xlink="http://www.w3.org/1999/xlink" x="0px" y="0px"
	 viewBox="0 0 78 78" style="enable-background:new 0 0 78 78;" xml:space="preserve">
<path d="M62.6,34.5H39.5V44h13.2c-0.3,1.4-0.8,2.8-1.5,3.9c-0.9,1.4-2,2.5-3.4,3.5l0,0c-2.2,1.5-5,2.3-8.3,2.3c0,0-0.1,0-0.1,0
	c-4.6,0-8.7-2.3-11.3-5.8c-0.9-1.2-1.7-2.6-2.2-4c0-0.1-0.1-0.2-0.1-0.3l-2.2,1.7l2.1-1.7c-0.5-1.5-0.8-3-0.8-4.7
	c0-1.6,0.3-3.2,0.8-4.7l0,0c0-0.1,0.1-0.2,0.1-0.3c0.5-1.4,1.3-2.8,2.2-4c2.6-3.5,6.7-5.8,11.3-5.8c0,0,0.1,0,0.1,0
	c3.6,0,6.8,1.2,9.4,3.7l7-7l0.1-0.1c-4.2-4-9.8-6.4-16.4-6.4c0,0-0.1,0-0.1,0c-9.5,0-17.8,5.5-21.8,13.5c-0.3,0.7-0.6,1.3-0.9,2
	c-1.1,2.8-1.7,5.8-1.7,9s0.6,6.2,1.7,9c0.3,0.7,0.6,1.4,0.9,2l0,0c1.9,3.8,4.8,7,8.3,9.4c3.9,2.6,8.5,4.1,13.5,4.1c0,0,0.1,0,0.1,0
	c6.6,0,12.2-2.2,16.2-5.9h0c2.8-2.5,4.8-5.8,6-9.6c0.8-2.6,1.3-5.4,1.3-8.4C63,37.8,62.9,36.2,62.6,34.5z"/>
</svg>
