<svg xmlns="http://www.w3.org/2000/svg" viewBox="0 0 255.17 80.25"><defs><style>.cls-1{fill:#d1d3d4;}</style></defs><title>logo_google_grey</title><g id="Laag_2" data-name="Laag 2"><g id="Layer_1" data-name="Layer 1"><g id="_Groep_" data-name="&lt;Groep&gt;"><path id="_Pad_" data-name="&lt;Pad&gt;" class="cls-1" d="M31.87,28.59v8.59H52.4C51.77,42,50.16,45.52,47.72,48c-3,3-7.68,6.28-15.85,6.28A22.52,22.52,0,0,1,9.36,31.45,22.52,22.52,0,0,1,31.87,8.62a21.79,21.79,0,0,1,15.46,6.15l6-6A29.63,29.63,0,0,0,31.87,0C14.56,0,0,14.1,0,31.42S14.56,62.83,31.87,62.83c9.36,0,16.41-3.07,21.92-8.79,5.66-5.66,7.44-13.65,7.44-20.08a27,27,0,0,0-.46-5.37Z"/><path id="_Samengesteld_pad_" data-name="&lt;Samengesteld pad&gt;" class="cls-1" d="M86.88,21.61A20,20,0,0,0,66.53,41.89a20.35,20.35,0,0,0,40.7,0A20,20,0,0,0,86.88,21.61Zm0,32.57c-6.14,0-11.45-5.07-11.45-12.29S80.74,29.6,86.88,29.6s11.45,5,11.45,12.29S93,54.18,86.88,54.18Z"/><path id="_Samengesteld_pad_2" data-name="&lt;Samengesteld pad&gt;" class="cls-1" d="M186.65,26.15h-.32a14,14,0,0,0-10.68-4.54c-10.12,0-19,8.83-19,20.28s8.83,20.28,19,20.28a13.83,13.83,0,0,0,10.68-4.61h.32v2.83c0,7.75-4.16,11.9-10.82,11.9-5.45,0-8.83-3.91-10.23-7.22l-7.75,3.21a19.32,19.32,0,0,0,18,12c10.43,0,19.27-6.14,19.27-21.12V22.65h-8.45Zm-10.23,28c-6.14,0-10.82-5.24-10.82-12.29s4.68-12.29,10.82-12.29S187.24,34.84,187.24,42,182.49,54.18,176.42,54.18Z"/><path id="_Samengesteld_pad_3" data-name="&lt;Samengesteld pad&gt;" class="cls-1" d="M132.26,21.61a20,20,0,0,0-20.35,20.28,20.35,20.35,0,0,0,40.7,0A20,20,0,0,0,132.26,21.61Zm0,32.57c-6.14,0-11.45-5.07-11.45-12.29s5.31-12.29,11.45-12.29,11.45,5,11.45,12.29S138.41,54.18,132.26,54.18Z"/><path id="_Pad_2" data-name="&lt;Pad&gt;" class="cls-1" d="M202.08.84h8.76V62.17h-8.76Z"/><path id="_Samengesteld_pad_4" data-name="&lt;Samengesteld pad&gt;" class="cls-1" d="M237.89,54.18c-4.54,0-7.75-2.06-9.84-6.15l27.12-11.2-.91-2.31c-1.67-4.53-6.84-12.91-17.35-12.91s-19.12,8.2-19.12,20.28c0,11.38,8.58,20.28,20.1,20.28a20.25,20.25,0,0,0,16.9-9l-6.91-4.61c-2.31,3.35-5.45,5.59-10,5.59Zm-.63-25c3.6,0,6.67,1.85,7.68,4.47l-18.32,7.57C226.62,32.74,232.66,29.22,237.26,29.22Z"/></g></g></g></svg>