<?xml version="1.0" encoding="utf-8"?>
<!-- Generator: Adobe Illustrator 21.1.0, SVG Export Plug-In . SVG Version: 6.00 Build 0)  -->
<svg version="1.1" id="Layer_1" xmlns="http://www.w3.org/2000/svg" xmlns:xlink="http://www.w3.org/1999/xlink" x="0px" y="0px"
	 viewBox="0 0 512 512" style="enable-background:new 0 0 512 512;" xml:space="preserve">
<style type="text/css">
	.st0{fill:#32A753;}
	.st1{fill:#3E82F1;}
	.st2{fill:#F9BB00;}
	.st3{fill:#E74133;}
</style>
<g>
	<path class="st0" d="M259.6,363.2c-0.2,0-0.5,0-0.7,0c-33.6-0.2-63.4-16.9-82.4-42.1c-6.6-8.8-12-18.6-15.7-29.2
		c-0.2-0.7-0.5-1.4-0.7-2.1l-40.3,31.2l-19.2,14.9c13.9,27.6,34.7,51,60.2,68.1c28.1,18.8,61.8,29.8,98.2,30c0.2,0,0.5,0,0.7,0
		c48.1,0,88.4-15.9,117.8-43.1l-57.5-44.7C303.9,356.9,283.5,363.2,259.6,363.2z"/>
	<path class="st1" d="M427.2,223.6H259.6v68.9h95.8c-1.9,10.4-5.7,20-11,28.6c-6.2,9.9-14.4,18.4-24.5,25.1l57.5,44.7
		c20.1-18.5,35.1-42.2,43.9-69.8c6-18.7,9.2-39.2,9.2-61C430.5,247.4,429.3,235.3,427.2,223.6z"/>
	<path class="st2" d="M160,289.8c-3.6-10.7-5.6-22.1-5.6-33.8c0-11.7,2-23.1,5.6-33.8l-40.3-31.2l-19.2-14.9
		c-2.4,4.8-4.6,9.8-6.6,14.9c-7.9,20.2-12.3,42.1-12.3,65.1s4.4,44.9,12.3,65.1c2,5.1,4.2,10,6.6,14.9l19.2-14.9L160,289.8z"/>
	<path class="st3" d="M160,222.2c0.2-0.7,0.5-1.4,0.7-2.1c3.8-10.5,9.1-20.4,15.7-29.1c19.1-25.2,48.9-41.9,82.4-42.1
		c0.2,0,0.5,0,0.7,0c26.1,0,49.6,9,68,26.6l50.7-50.7l0.4-0.4C347.8,95.6,307.5,78,259.6,78c-0.2,0-0.5,0-0.7,0
		c-69.3,0.3-129.2,40.1-158.4,98.1l19.2,14.9L160,222.2z"/>
</g>
</svg>
